PathFileType	4	(X/Y/Z)	c:/Users/goper/Files/vsCode/490R/osim_files/C11/C11_Slow_06.trc
DataRate	CameraRate	NumFrames	NumMarkers	Units                	OrigDataRate	OrigDataStartFrame	OrigNumFrames
120.00	120.00	4	36	mm	120.0	446	1188
                Frame#	Time	LPSIS			LASIS			LTH1			LTH2			LTH3			LTH4			LLFE			LMFE			LSH1			LSH2			LSH3			LSH4			LLMAL			LMMAL			LCAL			LMTP5			LTOE			LMTP1			RPSIS			RASIS			RTH1			RTH2			RTH3			RTH4			RLFE			RMFE			RSH1			RSH2			RSH3			RSH4			RLMAL			RMMAL			RCAL			RMTP1			RTOE			RMTP5		
		X1	Y1	Z1	X2	Y2	Z2	X3	Y3	Z3	X4	Y4	Z4	X5	Y5	Z5	X6	Y6	Z6	X7	Y7	Z7	X8	Y8	Z8	X9	Y9	Z9	X10	Y10	Z10	X11	Y11	Z11	X12	Y12	Z12	X13	Y13	Z13	X14	Y14	Z14	X15	Y15	Z15	X16	Y16	Z16	X17	Y17	Z17	X18	Y18	Z18	X19	Y19	Z19	X20	Y20	Z20	X21	Y21	Z21	X22	Y22	Z22	X23	Y23	Z23	X24	Y24	Z24	X25	Y25	Z25	X26	Y26	Z26	X27	Y27	Z27	X28	Y28	Z28	X29	Y29	Z29	X30	Y30	Z30	X31	Y31	Z31	X32	Y32	Z32	X33	Y33	Z33	X34	Y34	Z34	X35	Y35	Z35	X36	Y36	Z36

446	3.70833	1021.35986	974.20679	310.64554	850.27313	975.64722	394.23563	935.77026	576.93250	423.50928	928.77698	529.58478	424.41302	881.76837	579.18195	450.10022	881.50745	532.99615	444.25333	0.00000	0.00000	0.00000	912.44012	472.23050	436.16550	977.23059	394.33359	448.15054	1019.43994	376.38187	445.55817	1009.16046	446.45093	438.66275	1045.40320	420.82202	436.99139	1255.59253	260.63498	379.60687	1214.83276	238.65749	290.53714	1299.52295	299.46014	315.48206	1270.71582	134.70592	403.26968	1212.80347	78.94080	344.77805	1236.81372	108.05146	294.73114	1011.73499	991.89966	227.98538	839.77325	974.86255	162.98688	758.40594	637.43903	148.21870	752.79675	595.10974	153.50633	817.49628	618.61652	133.11368	801.68579	579.24261	143.16582	759.69110	508.12939	168.00661	793.86493	490.08591	275.68500	812.11829	394.95413	147.20137	807.05133	349.88394	151.60355	751.14227	396.33600	161.11429	753.70868	348.27316	163.10674	795.61047	93.57307	207.56854	770.43451	104.99693	304.41095	858.20667	58.38460	261.63010	642.19696	48.19490	286.48853	637.52167	62.61588	236.71046	678.14087	39.34740	175.24875
447	3.71667	1013.83545	975.53467	309.85831	842.47974	977.16418	393.83456	919.21326	577.66907	422.62396	911.19507	530.47888	423.58047	865.50983	581.10443	449.77597	864.21075	534.88702	443.85101	0.00000	0.00000	0.00000	892.57422	474.07883	436.02304	957.42688	396.73306	448.20758	998.81708	378.44583	445.82153	988.62567	448.67761	438.57043	1025.22144	423.34613	437.68970	1237.29565	265.05432	381.05103	1197.01807	242.81712	292.08798	1281.96411	303.69971	316.59811	1252.64636	139.92490	405.91260	1194.12671	83.69138	348.13348	1218.57788	112.15879	297.66547	1003.70374	993.19666	227.37759	831.35138	976.55066	162.60362	752.52130	637.46924	148.20258	747.58112	595.31635	153.65463	812.33685	619.35260	132.48509	796.75543	579.79535	142.71960	755.88379	508.08438	167.85268	791.13153	490.26459	275.37750	809.58954	395.23331	147.08313	804.88287	350.10315	151.51924	748.44672	395.95862	161.13400	752.41974	349.08868	161.63104	795.28467	93.68323	207.68713	770.41217	105.01845	304.39435	858.19830	58.35811	261.64676	642.21765	48.18538	286.46738	637.54633	62.57841	236.71432	678.18146	39.35401	175.22359
448	3.72500	1006.10345	976.72559	309.24734	835.38855	978.67664	392.81525	902.84766	578.70190	422.13235	893.82855	531.82086	422.95819	849.83325	583.43793	449.49637	847.13348	537.20459	443.39514	0.00000	0.00000	0.00000	874.27002	476.63937	436.05908	938.40625	400.02536	448.32648	978.98236	381.38229	446.27182	968.87280	451.63297	438.55389	1005.72491	426.62259	438.13211	1219.69885	269.40356	382.31180	1178.66699	246.52319	293.71738	1264.52747	306.32614	317.58029	1233.09509	144.10338	408.74667	1172.90564	88.39558	352.38821	1198.74707	115.83837	300.44638	995.83746	994.60638	226.72044	823.30835	978.14252	162.24530	747.58063	637.69781	148.25259	743.02576	595.35071	153.32877	807.09009	620.02411	132.01096	792.45276	580.47150	141.96246	752.33234	508.03012	167.63783	788.06671	490.43896	275.14435	807.10132	395.42728	146.82169	803.02991	350.34515	151.09738	746.03497	395.75446	160.85895	749.53387	348.04059	162.64645	795.29456	93.72508	207.67387	770.54089	105.02630	304.39816	858.21796	58.31523	261.66638	642.34320	48.10760	286.45551	637.58423	62.55506	236.70908	678.30609	39.39817	175.23781
449	3.73333	997.91974	977.59882	308.89343	827.80682	980.35968	392.55475	886.55688	580.22095	421.82135	876.83380	533.74121	422.47635	833.32452	586.17303	449.30170	830.00165	539.97522	443.06046	0.00000	0.00000	0.00000	854.93677	479.43796	435.88712	919.03491	403.28259	448.29688	960.06049	385.08743	446.50760	949.72540	455.08969	438.44174	986.67969	430.29312	438.17371	1200.79675	271.71646	383.93353	1159.92297	249.38293	295.48022	1247.03040	307.89258	318.72144	1212.41956	147.07133	411.47714	1151.15515	91.98568	355.62131	1177.43738	118.25653	303.45135	987.90436	995.94012	226.08015	815.34180	979.64093	161.95096	742.35754	637.78888	147.84607	738.15125	595.42023	153.40707	801.89331	620.67102	131.65683	787.45203	580.77600	141.98509	748.97980	507.92429	167.37613	785.24445	490.56409	274.78564	804.72241	395.60822	146.43217	800.61414	350.25571	151.07614	743.68469	395.50903	160.57529	747.42889	347.80099	162.46515	795.26385	93.72073	207.68697	770.98755	105.00896	304.36624	858.21124	58.30079	261.69464	642.40570	48.05151	286.47623	637.60156	62.49593	236.73074	678.32184	39.42524	175.21361
